<svg id="Layer_1" data-name="Layer 1" xmlns="http://www.w3.org/2000/svg" xmlns:xlink="http://www.w3.org/1999/xlink" viewBox="0 0 792 795"><defs><style>.cls-1{fill:url(#linear-gradient);}.cls-2{fill:#fff;}</style><linearGradient id="linear-gradient" x1="69.39" y1="405.16" x2="720.48" y2="405.16" gradientUnits="userSpaceOnUse"><stop offset="0" stop-color="#286989"/><stop offset="1" stop-color="#209aa2"/></linearGradient></defs><title>Local Source Logo copy</title><circle class="cls-1" cx="394.94" cy="405.16" r="325.54"/><path class="cls-2" d="M230.1,411.5H158.28V236.77h26.36V385.28H230.1Z"/><path class="cls-2" d="M289.92,234.54a41.77,41.77,0,0,1,41.83,41.83v95.38a41.77,41.77,0,1,1-83.53,0V276.37a41.77,41.77,0,0,1,41.7-41.83Zm14.36,41.27a15,15,0,0,0-15.06-15.06,14.78,14.78,0,0,0-10.74,4.4A14.4,14.4,0,0,0,274,275.81v95.67a14.4,14.4,0,0,0,4.46,10.66,14.78,14.78,0,0,0,10.74,4.4,15,15,0,0,0,15.06-15.06Z"/><path class="cls-2" d="M396.32,413.73A41.65,41.65,0,0,1,354.48,372V276.65a41.77,41.77,0,1,1,83.53,0v19.94H410.68v-20.5a15.24,15.24,0,0,0-15.2-15.2,14.41,14.41,0,0,0-10.67,4.47,14.73,14.73,0,0,0-4.39,10.73v95.66a15,15,0,0,0,15.06,15.07,14.78,14.78,0,0,0,10.74-4.4,14.42,14.42,0,0,0,4.46-10.67V347.63H438V372a41.65,41.65,0,0,1-41.69,41.7Z"/><path class="cls-2" d="M486.92,371.34l-6.41,40.16H453.07l29.71-174.73H519L548.31,411.5H520.6l-6.17-40.16Zm13.84-94.55L491,345.68h19.52Z"/><path class="cls-2" d="M642.3,411.5H570.48V236.77h26.36V385.28H642.3Z"/><path class="cls-2" d="M177.82,459.94a12.51,12.51,0,0,0-8.33,3.08,9.58,9.58,0,0,0-3.61,7.59q0,4.53,4.07,8.32a48.94,48.94,0,0,0,9.77,7q5.68,3.17,11.48,6.78a35.08,35.08,0,0,1,9.86,9.23,21.26,21.26,0,0,1,4.07,12.84,23.92,23.92,0,0,1-8,18.18,27.47,27.47,0,0,1-19.44,7.51,29.37,29.37,0,0,1-13.48-3.17,20.69,20.69,0,0,1-9.14-8.41v-8.68q6.89,15.2,22.07,15.19a22.77,22.77,0,0,0,15.83-5.78q6.42-5.79,6.42-12.94a18.14,18.14,0,0,0-4.07-12,37.87,37.87,0,0,0-9.86-8.32q-5.79-3.44-11.48-6.78a37.82,37.82,0,0,1-9.77-8.14,16.83,16.83,0,0,1-4.07-11.22,13.79,13.79,0,0,1,5.15-10.85q5.16-4.44,13.3-4.44a18.22,18.22,0,0,1,13.93,6.34v7.41Q186.68,459.93,177.82,459.94Z"/><path class="cls-2" d="M230.28,527.51q-12.5-12.94-12.49-30.12t12.67-29.76a43.13,43.13,0,0,1,60.87,0q12.57,12.57,12.57,29.85T291.6,527.6a39.8,39.8,0,0,1-29.85,12.84h-1.63Q242.77,540.44,230.28,527.51Zm67.83-29.67a36.71,36.71,0,0,0-10.94-26.5Q276.22,460.12,261,460.12t-26.32,11.31q-11.13,11.31-11.13,26.5t11.13,26.32a36.05,36.05,0,0,0,26.41,11.12,35.19,35.19,0,0,0,26.14-11.12A36.56,36.56,0,0,0,298.11,497.84Z"/><path class="cls-2" d="M386.57,457.05h5.79v81.4h-5.79V522q-9.22,18.45-31.48,18.45A34.34,34.34,0,0,1,329.59,530a35,35,0,0,1-10.31-25.51V457.05h5.79v47.39a30.47,30.47,0,0,0,8.77,21.71,28.24,28.24,0,0,0,21.25,9.22q12.5,0,22-9.22t9.5-21.71Z"/><path class="cls-2" d="M442.29,460.12a23.36,23.36,0,0,0-16.92,7.24,22.94,22.94,0,0,0-7.32,16.82v54.27h-5.79v-81.4h5.79v12.12A25.57,25.57,0,0,1,428.18,459a30.12,30.12,0,0,1,15.37-4,26.91,26.91,0,0,1,16.28,5.78v7.24Q451.88,460.13,442.29,460.12Z"/><path class="cls-2" d="M514.65,540.8H513q-17.37,0-29.85-12.84t-12.48-30.12q0-17.28,12.66-29.85t31.11-12.57q18.46,0,31.48,13.93v9.22a41.89,41.89,0,0,0-14.2-13.2,35.89,35.89,0,0,0-18-4.89q-15,0-26.14,11.13a37.14,37.14,0,0,0,0,53q11.13,11.13,26.14,11.13a35.89,35.89,0,0,0,18-4.89,41.17,41.17,0,0,0,14.2-13.38v9.4A40.59,40.59,0,0,1,514.65,540.8Z"/><path class="cls-2" d="M602,540.62h-1.63q-17.19,0-29.94-12.93T557.7,497.57q0-17.19,12.66-29.76t31.3-12.57q18.63,0,32,14.83l-56.81,56.08q11.76,9.4,22.62,9.41a38.06,38.06,0,0,0,19.44-5,42.59,42.59,0,0,0,14.2-13.3v9.23Q620.29,540.63,602,540.62Zm-1.9-80.32q-14.39,0-25.51,11.13T563.49,497a37,37,0,0,0,9.59,25.33l52.64-52.28A37.9,37.9,0,0,0,600.12,460.3Z"/></svg>