<svg id="Layer_1" data-name="Layer 1" xmlns="http://www.w3.org/2000/svg" xmlns:xlink="http://www.w3.org/1999/xlink" viewBox="0 0 2039.31 2453.25"><defs><style>.cls-1{fill:none;}.cls-2{fill:url(#linear-gradient);}.cls-3{fill:#6d6e71;}.cls-4{fill:#286989;}.cls-5{clip-path:url(#clip-path);}.cls-6{fill:url(#linear-gradient-2);}.cls-7{fill:url(#linear-gradient-3);}.cls-8{fill:url(#linear-gradient-4);}.cls-9{fill:url(#linear-gradient-5);}.cls-10{fill:url(#linear-gradient-6);}</style><linearGradient id="linear-gradient" x1="608.58" y1="577.83" x2="1387.51" y2="577.83" gradientUnits="userSpaceOnUse"><stop offset="0" stop-color="#286989"/><stop offset="1" stop-color="#0f818e"/></linearGradient><clipPath id="clip-path"><polygon class="cls-1" points="1000.19 580.73 540.33 573.78 693.23 212.38 1002.51 142.88 1000.19 580.73"/></clipPath><linearGradient id="linear-gradient-2" x1="25.89" y1="1181.37" x2="1580.53" y2="1181.37" xlink:href="#linear-gradient"/><linearGradient id="linear-gradient-3" x1="25.89" y1="1455.9" x2="1415.15" y2="1455.9" xlink:href="#linear-gradient"/><linearGradient id="linear-gradient-4" x1="22.42" y1="1746.18" x2="1496.19" y2="1746.18" xlink:href="#linear-gradient"/><linearGradient id="linear-gradient-5" x1="24.25" y1="2040.26" x2="1672.07" y2="2040.26" xlink:href="#linear-gradient"/><linearGradient id="linear-gradient-6" x1="27.73" y1="2332.17" x2="1064.49" y2="2332.17" xlink:href="#linear-gradient"/></defs><title>Artboard 36</title><path class="cls-2" d="M998.05,967.29c-214.76,0-389.47-174.71-389.47-389.46S783.29,188.36,998.05,188.36s389.46,174.71,389.46,389.47S1212.8,967.29,998.05,967.29Zm0-709.43c-176.43,0-320,143.54-320,320s143.54,320,320,320,320-143.53,320-320S1174.47,257.86,998.05,257.86Z"/><path class="cls-3" d="M514.53,112.32h-49V25.73h49v12H479.71V61.26h32.63V73.11H479.71V100.3h34.82Z"/><path class="cls-3" d="M587,112.32H573V71.93q0-7.53-2.84-11.22T561.26,57q-8.06,0-11.81,5.24t-3.76,17.44v32.64H531.77V46.81h10.9l2,8.6h.71a18.1,18.1,0,0,1,7.91-7.23,25.5,25.5,0,0,1,11.4-2.55q15.11,0,20,10.31h1a19.92,19.92,0,0,1,8.17-7.59,26,26,0,0,1,12.08-2.72q11.73,0,17.09,5.92t5.36,18.07v42.7H614.39V71.93q0-7.53-2.87-11.22T602.6,57q-8.11,0-11.87,5.06T587,77.61Z"/><path class="cls-3" d="M646.9,29.47a7.7,7.7,0,0,1,2-5.75,8,8,0,0,1,5.83-2,7.81,7.81,0,0,1,5.72,2,7.7,7.7,0,0,1,2,5.75,7.56,7.56,0,0,1-2,5.59,7.74,7.74,0,0,1-5.72,2,7.9,7.9,0,0,1-5.83-2A7.56,7.56,0,0,1,646.9,29.47Zm14.74,82.85H647.73V46.81h13.91Z"/><path class="cls-3" d="M714.53,25.73h25.71q17.88,0,25.85,5.22t8,16.46A20,20,0,0,1,770.15,60q-3.92,5-11.26,6.34V67q9.12,1.72,13.42,6.78t4.29,13.71q0,11.67-8.14,18.27t-22.66,6.61H714.53ZM728.69,61.5h13.62q8.88,0,13-2.81t4.08-9.56c0-4.07-1.46-7-4.41-8.83s-7.61-2.72-14-2.72H728.69Zm0,11.49v27.42h15q8.88,0,13.41-3.4t4.54-10.75q0-6.75-4.63-10T743,73Z"/><path class="cls-3" d="M834.1,112.32l-2.78-9.12h-.47q-4.74,6-9.54,8.14A30.16,30.16,0,0,1,809,113.51q-9.65,0-15.07-5.22T788.5,93.54q0-10.12,7.52-15.27t22.92-5.63l11.31-.36V68.79q0-6.29-2.93-9.39t-9.09-3.11a31,31,0,0,0-9.65,1.49,74.22,74.22,0,0,0-8.89,3.48l-4.5-9.95a48.54,48.54,0,0,1,11.67-4.22,53,53,0,0,1,12-1.46q12.48,0,18.86,5.45t6.36,17.11v44.13Zm-20.73-9.48q7.59,0,12.17-4.23c3.07-2.83,4.6-6.78,4.6-11.88V81.05l-8.42.35q-9.83.36-14.3,3.29t-4.47,9a8.75,8.75,0,0,0,2.61,6.78C807.29,102,809.9,102.84,813.37,102.84Z"/><path class="cls-3" d="M876.92,77.73l7.88-9.83,19.78-21.09h16L894.27,75l28,37.37H905.94l-21-28.73-7.64,6.28v22.45h-13.8V20.17h13.8v45l-.72,12.61Z"/><path class="cls-3" d="M961.43,113.51q-15.27,0-23.89-8.92T928.92,80q0-16.05,8-25.23t22-9.18q13,0,20.49,7.88t7.52,21.67V82.7H943.26q.29,9.54,5.15,14.67c3.23,3.41,7.8,5.12,13.67,5.12a50.65,50.65,0,0,0,10.82-1.1,56.84,56.84,0,0,0,10.75-3.64v11.31a42.77,42.77,0,0,1-10.31,3.43A62.44,62.44,0,0,1,961.43,113.51Zm-2.54-57.34a14,14,0,0,0-10.63,4.21q-4,4.2-4.77,12.26h29.73q-.12-8.11-3.91-12.29T958.89,56.17Z"/><path class="cls-3" d="M1035.94,45.63a33.85,33.85,0,0,1,6.93.59l-1.36,13a26.56,26.56,0,0,0-6.16-.71q-8.34,0-13.53,5.45t-5.19,14.16v34.23h-13.91V46.81h10.89l1.84,11.56h.71a26,26,0,0,1,8.5-9.3A20.23,20.23,0,0,1,1035.94,45.63Z"/><path class="cls-3" d="M1065.79,98.22l.88,1.36q-1.53,5.92-4.44,13.78c-1.94,5.22-3.94,10.09-6,14.6h-7.4q1.61-6.17,3.52-15.23c1.29-6,2.18-10.87,2.7-14.51Z"/><path class="cls-3" d="M1106.41,47.41H1117l14.21,37q4.68,12.67,5.81,18.3h.47q.77-3,3.23-10.33t16.07-45h10.55l-27.89,73.91q-4.15,11-9.69,15.55a20.58,20.58,0,0,1-13.59,4.59,39.59,39.59,0,0,1-8.88-1v-7.88a33.72,33.72,0,0,0,7.28.71q10.13,0,14.45-11.37l3.61-9.24Z"/><path class="cls-3" d="M1233.86,79.81q0,15.87-8,24.78t-22.09,8.92a29.21,29.21,0,0,1-15.46-4.1,27,27,0,0,1-10.42-11.72,40.87,40.87,0,0,1-3.67-17.88q0-15.87,7.94-24.73t22-8.86q13.62,0,21.64,9.06T1233.86,79.81Zm-49.45,0q0,12.42,5,19t14.63,6.51q9.66,0,14.65-6.49t5-19q0-12.39-5-18.81t-14.77-6.43q-9.66,0-14.57,6.34T1184.41,79.81Z"/><path class="cls-3" d="M1260.33,47.41V89.52q0,7.94,3.62,11.84t11.31,3.91q10.18,0,14.89-5.57t4.71-18.18V47.41h9.84v64.91h-8.12l-1.42-8.71h-.54a19.46,19.46,0,0,1-8.38,7.34,28.11,28.11,0,0,1-12.22,2.56q-11.85,0-17.74-5.63t-5.9-18V47.41Z"/><path class="cls-3" d="M1397,112.32l-2-9.24h-.47c-3.24,4.07-6.46,6.82-9.69,8.26a29.46,29.46,0,0,1-12,2.17q-9.66,0-15.14-5t-5.48-14.16q0-19.65,31.46-20.6l11-.36v-4q0-7.65-3.29-11.28t-10.51-3.64q-8.11,0-18.36,5l-3-7.52A45.75,45.75,0,0,1,1370,47.83a45,45,0,0,1,11.46-1.48q11.61,0,17.21,5.15T1404.25,68v44.3Zm-22.21-6.93q9.18,0,14.42-5t5.24-14.09V80.4l-9.83.41q-11.73.42-16.91,3.65t-5.18,10q0,5.33,3.23,8.12T1374.76,105.39Z"/><path class="cls-3" d="M1454.12,46.22a38.09,38.09,0,0,1,7.76.72l-1.37,9.12a33.09,33.09,0,0,0-7.11-.89,17.31,17.31,0,0,0-13.47,6.39q-5.6,6.39-5.6,15.93v34.83h-9.83V47.41h8.12l1.12,12h.48a28.53,28.53,0,0,1,8.7-9.77A19.63,19.63,0,0,1,1454.12,46.22Z"/><path class="cls-3" d="M1501.44,113.51q-14.4,0-22.72-8.77T1470.4,80.4q0-15.7,7.73-24.94t20.76-9.24q12.19,0,19.31,8t7.1,21.17v6.22h-44.71q.29,11.43,5.77,17.35t15.43,5.92a52.31,52.31,0,0,0,20.73-4.38v8.77a52.07,52.07,0,0,1-9.86,3.23A55.49,55.49,0,0,1,1501.44,113.51Zm-2.67-59q-7.82,0-12.47,5.09t-5.47,14.09h33.93q0-9.28-4.15-14.24T1498.77,54.46Z"/><path class="cls-3" d="M90.57,1057.57q0,19.67-10.67,30T49.19,1098h-22v-79.38H51.53q18.51,0,28.78,10.26T90.57,1057.57Zm-9.78.33q0-15.54-7.79-23.41t-23.16-7.87H36.43V1090H47.67q16.5,0,24.82-8.12T80.79,1057.9Z"/><path class="cls-3" d="M106.15,1022.38a6,6,0,0,1,1.52-4.53,5.62,5.62,0,0,1,7.55,0,5.87,5.87,0,0,1,1.57,4.5,6,6,0,0,1-1.57,4.54,5.24,5.24,0,0,1-3.75,1.49,5.18,5.18,0,0,1-3.8-1.49A6.13,6.13,0,0,1,106.15,1022.38Zm9.77,75.64h-9v-59.51h9Z"/><path class="cls-3" d="M175.76,1098v-38.5q0-7.27-3.31-10.86t-10.37-3.58q-9.35,0-13.68,5.05t-4.35,16.67V1098h-9v-59.51h7.33l1.46,8.15h.44a18.31,18.31,0,0,1,7.76-6.82,25.26,25.26,0,0,1,11.13-2.41q10.76,0,16.18,5.18t5.43,16.59V1098Z"/><path class="cls-3" d="M202.53,1022.38a6,6,0,0,1,1.52-4.53,5.62,5.62,0,0,1,7.55,0,5.87,5.87,0,0,1,1.57,4.5,6,6,0,0,1-1.57,4.54,5.24,5.24,0,0,1-3.75,1.49,5.18,5.18,0,0,1-3.8-1.49A6.13,6.13,0,0,1,202.53,1022.38ZM212.3,1098h-9v-59.51h9Z"/><path class="cls-3" d="M272.14,1098v-38.5q0-7.27-3.31-10.86t-10.37-3.58q-9.34,0-13.69,5.05t-4.34,16.67V1098h-9v-59.51h7.33l1.46,8.15h.44a18.31,18.31,0,0,1,7.76-6.82,25.23,25.23,0,0,1,11.13-2.41q10.75,0,16.18,5.18t5.43,16.59V1098Z"/><path class="cls-3" d="M348.37,1038.51v5.7l-11,1.31a19.23,19.23,0,0,1,3.91,11.89q0,8.74-6,13.95t-16.4,5.21a27.2,27.2,0,0,1-5-.43q-5.76,3-5.76,7.66a3.9,3.9,0,0,0,2,3.61c1.34.78,3.64,1.16,6.89,1.16h10.54q9.66,0,14.85,4.08t5.18,11.83q0,9.88-7.92,15.07t-23.13,5.19q-11.69,0-18-4.35a14,14,0,0,1-6.33-12.27,13.76,13.76,0,0,1,3.48-9.39,17.73,17.73,0,0,1,9.77-5.38,9.42,9.42,0,0,1-3.83-3.2,8.49,8.49,0,0,1-1.55-5.05,9.58,9.58,0,0,1,1.74-5.7,18.28,18.28,0,0,1,5.49-4.73,16.12,16.12,0,0,1-7.53-6.46,19,19,0,0,1-2.9-10.42q0-9.78,5.86-15.07t16.62-5.29a30.05,30.05,0,0,1,8.42,1.08ZM300.92,1108a8.07,8.07,0,0,0,4.07,7.33c2.72,1.67,6.6,2.5,11.67,2.5q11.35,0,16.81-3.39t5.46-9.21q0-4.83-3-6.7t-11.24-1.88H313.9q-6.15,0-9.56,2.94T300.92,1108Zm4.88-50.44q0,6.24,3.53,9.45t9.83,3.2q13.2,0,13.2-12.81,0-13.41-13.36-13.41-6.36,0-9.77,3.42T305.8,1057.57Z"/><path class="cls-3" d="M36.43,1378.35H27.2V1299H71.45v8.2h-35v29H69.34v8.2H36.43Z"/><path class="cls-3" d="M119.83,1378.35l-1.79-8.47h-.43q-4.45,5.58-8.88,7.57a26.91,26.91,0,0,1-11,2q-8.85,0-13.87-4.56t-5-13q0-18,28.83-18.9l10.1-.33V1339q0-7-3-10.34t-9.63-3.34c-5,0-10.57,1.52-16.84,4.56l-2.77-6.9a43.47,43.47,0,0,1,20.15-5.1q10.64,0,15.77,4.72t5.13,15.15v40.62ZM99.47,1372c5.62,0,10-1.55,13.22-4.62s4.81-7.38,4.81-12.92v-5.38l-9,.38q-10.76.38-15.51,3.34t-4.75,9.2q0,4.89,3,7.44C93.17,1371.15,95.92,1372,99.47,1372Z"/><path class="cls-3" d="M183.47,1362.11q0,8.31-6.19,12.82t-17.37,4.5q-11.85,0-18.47-3.74v-8.36a45.52,45.52,0,0,0,9.21,3.42,38.55,38.55,0,0,0,9.47,1.25q7.06,0,10.86-2.26a7.76,7.76,0,0,0,.79-12.81c-2-1.65-5.92-3.59-11.76-5.84a63.89,63.89,0,0,1-11.81-5.4,16.23,16.23,0,0,1-5.21-5.24,13.69,13.69,0,0,1-1.71-7A13.35,13.35,0,0,1,147.2,1322q5.91-4.2,16.24-4.21a47.4,47.4,0,0,1,18.78,3.91L179,1329a43.12,43.12,0,0,0-16.24-3.69q-6.41,0-9.66,2a6.21,6.21,0,0,0-3.26,5.54,6.77,6.77,0,0,0,1.22,4.07,12.11,12.11,0,0,0,3.94,3.2,89.38,89.38,0,0,0,10.42,4.4q10.59,3.86,14.31,7.77A13.67,13.67,0,0,1,183.47,1362.11Z"/><path class="cls-3" d="M238.86,1378.35v-38.5q0-7.27-3.32-10.86t-10.37-3.58q-9.39,0-13.71,5.1t-4.31,16.73v31.11h-9v-84.49h9v25.57a55.6,55.6,0,0,1-.44,7.66h.54a18.43,18.43,0,0,1,7.58-6.76,24.58,24.58,0,0,1,11.21-2.47q10.92,0,16.37,5.19t5.46,16.48v38.82Z"/><path class="cls-3" d="M265.62,1302.71a6,6,0,0,1,1.52-4.53,5.64,5.64,0,0,1,7.55,0,5.89,5.89,0,0,1,1.58,4.51,6,6,0,0,1-1.58,4.54,5.53,5.53,0,0,1-7.55,0A6.13,6.13,0,0,1,265.62,1302.71Zm9.78,75.64h-9v-59.51h9Z"/><path class="cls-3" d="M345.88,1348.54q0,14.55-7.33,22.72t-20.26,8.17a26.8,26.8,0,0,1-14.17-3.74,24.67,24.67,0,0,1-9.55-10.75,37.41,37.41,0,0,1-3.37-16.4q0-14.55,7.27-22.67t20.2-8.12q12.49,0,19.85,8.31T345.88,1348.54Zm-45.34,0q0,11.4,4.56,17.37t13.41,6q8.85,0,13.44-6t4.59-17.4q0-11.36-4.59-17.24t-13.55-5.89q-8.85,0-13.36,5.81T300.54,1348.54Z"/><path class="cls-3" d="M402.4,1378.35v-38.5q0-7.27-3.31-10.86t-10.37-3.58q-9.35,0-13.69,5t-4.34,16.67v31.22h-9v-59.51H369l1.46,8.14h.44a18.36,18.36,0,0,1,7.76-6.81,25.27,25.27,0,0,1,11.13-2.42q10.76,0,16.18,5.19t5.43,16.59v38.82Z"/><path class="cls-3" d="M36.43,1665.62H27.2v-79.39H71.45v8.2h-35v29H69.34v8.2H36.43Z"/><path class="cls-3" d="M82.48,1590a6,6,0,0,1,1.52-4.53,5.3,5.3,0,0,1,3.8-1.44,5.38,5.38,0,0,1,3.75,1.46,5.88,5.88,0,0,1,1.57,4.51,6,6,0,0,1-1.57,4.54A5.32,5.32,0,0,1,87.8,1596a5.22,5.22,0,0,1-3.8-1.49A6.13,6.13,0,0,1,82.48,1590Zm9.77,75.64h-9v-59.51h9Z"/><path class="cls-3" d="M130.59,1659.27a28.89,28.89,0,0,0,4.61-.36,31.52,31.52,0,0,0,3.53-.73v6.9a16.7,16.7,0,0,1-4.32,1.16,32.12,32.12,0,0,1-5.13.46q-17.27,0-17.26-18.19v-35.4h-8.53v-4.34L112,1605l3.8-12.7H121v13.79H138.3v7H121v35q0,5.38,2.55,8.26A8.89,8.89,0,0,0,130.59,1659.27Z"/><path class="cls-3" d="M191.34,1665.62v-38.5q0-7.27-3.31-10.86t-10.37-3.58q-9.33,0-13.68,5t-4.35,16.67v31.22h-9v-59.51H158l1.47,8.14h.43a18.38,18.38,0,0,1,7.77-6.81,25.21,25.21,0,0,1,11.13-2.42q10.74,0,16.18,5.19t5.43,16.59v38.82Z"/><path class="cls-3" d="M244,1666.7q-13.19,0-20.82-8t-7.63-22.32q0-14.38,7.09-22.86t19-8.47q11.19,0,17.7,7.36t6.52,19.41v5.7h-41q.27,10.48,5.29,15.91t14.15,5.43a47.87,47.87,0,0,0,19-4v8a47.26,47.26,0,0,1-9,3A50.63,50.63,0,0,1,244,1666.7Zm-2.44-54.13q-7.17,0-11.43,4.67t-5,12.92h31.11q0-8.52-3.8-13.06C249.9,1614.08,246.27,1612.57,241.57,1612.57Z"/><path class="cls-3" d="M319.65,1649.38q0,8.31-6.19,12.82t-17.37,4.5q-11.85,0-18.47-3.74v-8.36a45.52,45.52,0,0,0,9.21,3.42,38.55,38.55,0,0,0,9.47,1.25q7.06,0,10.86-2.26a7.76,7.76,0,0,0,.79-12.81q-3-2.48-11.76-5.84a63.89,63.89,0,0,1-11.81-5.4,16.23,16.23,0,0,1-5.21-5.24,13.69,13.69,0,0,1-1.71-7,13.35,13.35,0,0,1,5.92-11.48q5.91-4.2,16.23-4.21a47.42,47.42,0,0,1,18.79,3.91l-3.2,7.33a43.12,43.12,0,0,0-16.24-3.69q-6.4,0-9.66,2a6.21,6.21,0,0,0-3.26,5.54,6.77,6.77,0,0,0,1.22,4.07,12.11,12.11,0,0,0,3.94,3.2,89.38,89.38,0,0,0,10.42,4.4q10.59,3.86,14.31,7.77A13.67,13.67,0,0,1,319.65,1649.38Z"/><path class="cls-3" d="M372.7,1649.38q0,8.31-6.19,12.82t-17.38,4.5q-11.83,0-18.46-3.74v-8.36a45.52,45.52,0,0,0,9.21,3.42,38.49,38.49,0,0,0,9.47,1.25q7.06,0,10.86-2.26a7.76,7.76,0,0,0,.79-12.81q-3-2.48-11.76-5.84a63.57,63.57,0,0,1-11.81-5.4,16.23,16.23,0,0,1-5.21-5.24,13.69,13.69,0,0,1-1.71-7,13.35,13.35,0,0,1,5.92-11.48q5.91-4.2,16.23-4.21a47.42,47.42,0,0,1,18.79,3.91l-3.2,7.33a43.16,43.16,0,0,0-16.24-3.69q-6.4,0-9.66,2a6.21,6.21,0,0,0-3.26,5.54,6.77,6.77,0,0,0,1.22,4.07,12.11,12.11,0,0,0,3.94,3.2,88.6,88.6,0,0,0,10.42,4.4q10.59,3.86,14.31,7.77A13.67,13.67,0,0,1,372.7,1649.38Z"/><path class="cls-3" d="M62.12,1911.3h27v38.6a85.79,85.79,0,0,1-12.81,3,97.42,97.42,0,0,1-15.1,1q-18,0-28.07-10.72t-10-30q0-12.39,5-21.7a33.68,33.68,0,0,1,14.31-14.22q9.34-4.92,21.88-4.92A59.88,59.88,0,0,1,87.91,1877l-3.59,8.15a52.85,52.85,0,0,0-20.68-4.56q-14.51,0-22.65,8.63t-8.14,24q0,16.07,7.85,24.38t23,8.3a68.31,68.31,0,0,0,16.13-1.9v-24.43H62.12Z"/><path class="cls-3" d="M134,1892.29a35.51,35.51,0,0,1,7.11.65l-1.24,8.37a30.41,30.41,0,0,0-6.52-.82,15.89,15.89,0,0,0-12.35,5.86,21.39,21.39,0,0,0-5.13,14.61v31.93h-9v-59.51h7.44l1,11h.44a26,26,0,0,1,8-9A18,18,0,0,1,134,1892.29Z"/><path class="cls-3" d="M203.56,1923.08q0,14.55-7.33,22.72T176,1954a26.78,26.78,0,0,1-14.17-3.74,24.76,24.76,0,0,1-9.56-10.75,37.41,37.41,0,0,1-3.37-16.4q0-14.55,7.28-22.67t20.2-8.12q12.49,0,19.84,8.31T203.56,1923.08Zm-45.34,0q0,11.4,4.56,17.37t13.42,6q8.84,0,13.43-6t4.59-17.4q0-11.36-4.59-17.24T176.09,1900q-8.85,0-13.36,5.81T158.22,1923.08Z"/><path class="cls-3" d="M243.14,1954q-12.91,0-20-8t-7.09-22.51q0-14.92,7.19-23.07t20.5-8.15a41,41,0,0,1,8.58.92,27.93,27.93,0,0,1,6.73,2.18l-2.76,7.65a42.67,42.67,0,0,0-6.52-2,29.45,29.45,0,0,0-6.25-.79q-18.12,0-18.13,23.13,0,11,4.42,16.84t13.12,5.86a40,40,0,0,0,15.26-3.2v8Q252.21,1954,243.14,1954Z"/><path class="cls-3" d="M297.44,1954q-13.19,0-20.82-8T269,1923.62q0-14.38,7.09-22.86t19-8.47q11.19,0,17.7,7.36t6.51,19.41v5.7h-41q.27,10.48,5.29,15.91t14.15,5.43a47.87,47.87,0,0,0,19-4v8a47.26,47.26,0,0,1-9,3A50.63,50.63,0,0,1,297.44,1954ZM295,1899.84q-7.17,0-11.43,4.67t-5,12.92h31.11q0-8.52-3.8-13.06C303.33,1901.35,299.7,1899.84,295,1899.84Z"/><path class="cls-3" d="M361.84,1892.29a35.51,35.51,0,0,1,7.11.65l-1.25,8.37a30.25,30.25,0,0,0-6.51-.82,15.89,15.89,0,0,0-12.35,5.86A21.4,21.4,0,0,0,343.7,1921v31.93h-9v-59.51h7.44l1,11h.44a26,26,0,0,1,8-9A18,18,0,0,1,361.84,1892.29Z"/><path class="cls-3" d="M379.32,1877.25a6,6,0,0,1,1.52-4.53,5.64,5.64,0,0,1,7.55,0,5.89,5.89,0,0,1,1.58,4.51,6,6,0,0,1-1.58,4.53,5.5,5.5,0,0,1-7.55,0A6.09,6.09,0,0,1,379.32,1877.25Zm9.78,75.64h-9v-59.51h9Z"/><path class="cls-3" d="M433.35,1954q-13.2,0-20.82-8t-7.63-22.32q0-14.38,7.08-22.86t19-8.47q11.18,0,17.7,7.36t6.51,19.41v5.7h-41q.27,10.48,5.29,15.91t14.15,5.43a47.91,47.91,0,0,0,19-4v8a47.49,47.49,0,0,1-9,3A50.63,50.63,0,0,1,433.35,1954Zm-2.44-54.13q-7.17,0-11.43,4.67t-5,12.92h31.12q0-8.52-3.8-13.06C439.24,1901.35,435.61,1899.84,430.91,1899.84Z"/><path class="cls-3" d="M509,1936.65q0,8.31-6.19,12.82t-17.38,4.5q-11.84,0-18.46-3.74v-8.36a45.66,45.66,0,0,0,9.2,3.42,38.63,38.63,0,0,0,9.48,1.25c4.7,0,8.33-.76,10.86-2.26a7.76,7.76,0,0,0,.79-12.81q-3-2.48-11.76-5.84a63.57,63.57,0,0,1-11.81-5.4,16.23,16.23,0,0,1-5.21-5.24,13.69,13.69,0,0,1-1.71-7,13.33,13.33,0,0,1,5.92-11.48q5.91-4.2,16.23-4.21a47.45,47.45,0,0,1,18.79,3.91l-3.2,7.33a43.2,43.2,0,0,0-16.24-3.69q-6.41,0-9.67,2a6.2,6.2,0,0,0-3.25,5.54,6.7,6.7,0,0,0,1.22,4.07,11.9,11.9,0,0,0,3.94,3.2,88.6,88.6,0,0,0,10.42,4.4q10.59,3.86,14.31,7.77A13.67,13.67,0,0,1,509,1936.65Z"/><path class="cls-3" d="M58.59,2249.42H49.36v-71.19H24.22V2170H83.73v8.2H58.59Z"/><path class="cls-3" d="M121.46,2188.82a35.69,35.69,0,0,1,7.12.65l-1.25,8.36a31,31,0,0,0-6.52-.81,15.85,15.85,0,0,0-12.35,5.86,21.39,21.39,0,0,0-5.13,14.61v31.93h-9v-59.51h7.44l1,11h.44a26.15,26.15,0,0,1,8-9A18,18,0,0,1,121.46,2188.82Z"/><path class="cls-3" d="M176.3,2249.42l-1.79-8.47h-.43q-4.46,5.58-8.88,7.57a27.07,27.07,0,0,1-11,2q-8.85,0-13.87-4.56t-5-13q0-18,28.84-18.89l10.1-.33v-3.69q0-7-3-10.34t-9.63-3.34c-5,0-10.57,1.52-16.84,4.56l-2.77-6.9a42.46,42.46,0,0,1,9.64-3.74,41.59,41.59,0,0,1,10.51-1.36q10.63,0,15.77,4.72T183,2208.8v40.62Zm-20.36-6.36q8.43,0,13.22-4.61t4.81-12.93v-5.37l-9,.38q-10.76.38-15.51,3.34t-4.75,9.2q0,4.89,3,7.44C149.64,2242.21,152.39,2243.06,155.94,2243.06Z"/><path class="cls-3" d="M242.28,2249.42v-38.5q0-7.27-3.32-10.86t-10.37-3.58q-9.33,0-13.68,5.05t-4.34,16.66v31.23h-9v-59.51h7.33l1.47,8.14h.43a18.38,18.38,0,0,1,7.77-6.81,25.24,25.24,0,0,1,11.13-2.42q10.75,0,16.18,5.18t5.43,16.59v38.83Z"/><path class="cls-3" d="M308.19,2233.18q0,8.31-6.19,12.82t-17.37,4.5c-7.9,0-14-1.25-18.46-3.74v-8.37a44.06,44.06,0,0,0,9.2,3.42,38.15,38.15,0,0,0,9.48,1.25q7,0,10.86-2.25a7.75,7.75,0,0,0,.78-12.81q-3-2.48-11.75-5.84c-5.54-2.07-9.48-3.86-11.81-5.4a16.26,16.26,0,0,1-5.22-5.24,13.69,13.69,0,0,1-1.71-7,13.35,13.35,0,0,1,5.92-11.48q5.93-4.22,16.24-4.21a47.37,47.37,0,0,1,18.78,3.91l-3.2,7.33a43.11,43.11,0,0,0-16.23-3.69c-4.27,0-7.5.67-9.67,2a6.2,6.2,0,0,0-3.26,5.53,6.72,6.72,0,0,0,1.23,4.08,12,12,0,0,0,3.93,3.2,89,89,0,0,0,10.43,4.4q10.59,3.85,14.3,7.76A13.71,13.71,0,0,1,308.19,2233.18Z"/><path class="cls-3" d="M350.55,2250.5a25.74,25.74,0,0,1-10.62-2.14,20,20,0,0,1-8.06-6.6h-.65a80.61,80.61,0,0,1,.65,9.88v24.49h-9v-86.22h7.33l1.25,8.14h.44A20.87,20.87,0,0,1,340,2191a24.67,24.67,0,0,1,10.59-2.17q11.83,0,18.27,8.09t6.43,22.7q0,14.66-6.54,22.77T350.55,2250.5Zm-1.31-54q-9.12,0-13.19,5.05t-4.18,16.07v2q0,12.54,4.18,17.94t13.41,5.4a13.94,13.94,0,0,0,12.08-6.24q4.36-6.24,4.37-17.21,0-11.13-4.37-17.08T349.24,2196.48Z"/><path class="cls-3" d="M442.36,2219.61q0,14.55-7.33,22.72t-20.25,8.17a26.9,26.9,0,0,1-14.17-3.74,24.78,24.78,0,0,1-9.56-10.76,37.5,37.5,0,0,1-3.36-16.39q0-14.55,7.27-22.67t20.2-8.12q12.49,0,19.85,8.31T442.36,2219.61Zm-45.33,0q0,11.4,4.56,17.37t13.41,6q8.85,0,13.44-5.94t4.58-17.4q0-11.36-4.58-17.24t-13.55-5.89q-8.85,0-13.36,5.81T397,2219.61Z"/><path class="cls-3" d="M485.31,2188.82a35.69,35.69,0,0,1,7.12.65l-1.25,8.36a31,31,0,0,0-6.52-.81,15.85,15.85,0,0,0-12.35,5.86,21.39,21.39,0,0,0-5.13,14.61v31.93h-9v-59.51h7.44l1,11h.43a26.15,26.15,0,0,1,8-9A18,18,0,0,1,485.31,2188.82Z"/><path class="cls-3" d="M522.78,2243.06a28.81,28.81,0,0,0,4.61-.35,31,31,0,0,0,3.53-.73v6.89a16.44,16.44,0,0,1-4.31,1.17,32.12,32.12,0,0,1-5.13.46q-17.28,0-17.27-18.19v-35.4h-8.53v-4.34l8.53-3.75,3.8-12.71h5.21v13.8h17.27v7H513.22v35c0,3.59.85,6.33,2.55,8.26A8.89,8.89,0,0,0,522.78,2243.06Z"/><path class="cls-3" d="M579.41,2249.42l-1.79-8.47h-.43q-4.46,5.58-8.88,7.57a27.07,27.07,0,0,1-11,2q-8.85,0-13.87-4.56t-5-13q0-18,28.83-18.89l10.1-.33v-3.69q0-7-3-10.34t-9.64-3.34q-7.44,0-16.83,4.56L545,2194a42.1,42.1,0,0,1,9.64-3.74,41.53,41.53,0,0,1,10.51-1.36q10.63,0,15.77,4.72t5.13,15.15v40.62Zm-20.36-6.36q8.41,0,13.22-4.61t4.81-12.93v-5.37l-9,.38q-10.74.38-15.5,3.34t-4.75,9.2c0,3.26,1,5.74,3,7.44S555.5,2243.06,559.05,2243.06Z"/><path class="cls-3" d="M623.88,2243.06a28.94,28.94,0,0,0,4.62-.35A32,32,0,0,0,632,2242v6.89a16.64,16.64,0,0,1-4.32,1.17,32.12,32.12,0,0,1-5.13.46q-17.26,0-17.27-18.19v-35.4h-8.52v-4.34l8.52-3.75,3.8-12.71h5.22v13.8h17.26v7H614.33v35c0,3.59.84,6.33,2.55,8.26A8.87,8.87,0,0,0,623.88,2243.06Z"/><path class="cls-3" d="M643.16,2173.78a6,6,0,0,1,1.52-4.54,5.65,5.65,0,0,1,7.55,0,5.88,5.88,0,0,1,1.57,4.51,6,6,0,0,1-1.57,4.53,5.28,5.28,0,0,1-3.75,1.5,5.19,5.19,0,0,1-3.8-1.5A6.1,6.1,0,0,1,643.16,2173.78Zm9.77,75.64h-9v-59.51h9Z"/><path class="cls-3" d="M723.41,2219.61q0,14.55-7.33,22.72t-20.25,8.17a26.93,26.93,0,0,1-14.18-3.74A24.82,24.82,0,0,1,672.1,2236a37.36,37.36,0,0,1-3.37-16.39q0-14.55,7.28-22.67t20.2-8.12q12.48,0,19.84,8.31T723.41,2219.61Zm-45.34,0q0,11.4,4.56,17.37t13.41,6q8.85,0,13.44-5.94t4.59-17.4q0-11.36-4.59-17.24t-13.54-5.89q-8.85,0-13.36,5.81T678.07,2219.61Z"/><path class="cls-3" d="M779.93,2249.42v-38.5q0-7.27-3.31-10.86c-2.2-2.39-5.67-3.58-10.37-3.58q-9.33,0-13.68,5.05t-4.35,16.66v31.23h-9v-59.51h7.33l1.47,8.14h.43a18.32,18.32,0,0,1,7.77-6.81,25.21,25.21,0,0,1,11.13-2.42q10.74,0,16.18,5.18t5.43,16.59v38.83Z"/><path class="cls-4" d="M787.4,595.14,851.33,455.4h-84V425.12H889.53v22.6l-64.4,147.42Z"/><path class="cls-4" d="M905.48,522.82q0-50.54,21.37-75.22t64-24.69q14.55,0,22.82,1.75v28.76a93.41,93.41,0,0,0-20.49-2.33q-18.52,0-30.22,5.59a37.61,37.61,0,0,0-17.53,16.54q-5.82,10.95-6.87,31.09h1.52q11.52-19.8,36.91-19.79,22.83,0,35.75,14.32t12.93,39.59q0,27.26-15.37,43.14t-42.63,15.9q-18.85,0-32.9-8.74t-21.65-25.5Q905.47,546.47,905.48,522.82ZM967,568.71q11.53,0,17.7-7.75t6.18-22.06q0-12.46-5.77-19.63t-17.41-7.16a26.68,26.68,0,0,0-18.68,7.1q-7.76,7.11-7.75,16.54,0,13.86,7.28,23.41T967,568.71Z"/><path class="cls-4" d="M1121.5,475.67q0,26.77-10.37,40.22t-30.39,13.46q-19.21,0-29.7-13.8t-10.48-39.88q0-53.22,40.18-53.22,19.68,0,30.21,13.8T1121.5,475.67Zm-51.59.23q0,14.79,2.62,22.06t8.44,7.28q11.19,0,11.18-29.34,0-29.11-11.18-29.11-5.82,0-8.44,7.16T1069.91,475.9Zm131.7-51-94.44,170.25h-28l94.45-170.25Zm39.13,118.78q0,26.67-10.36,40.12T1200,597.24q-19.2,0-29.69-13.8t-10.48-39.77q0-53.22,40.17-53.21,19.68,0,30.23,13.79T1240.74,543.67Zm-51.58.23q0,14.8,2.62,22.07t8.44,7.28q11.17,0,11.18-29.35,0-29.11-11.18-29.11-5.84,0-8.44,7.16T1189.16,543.9Z"/><path class="cls-3" d="M1845.47,1173.34q0,50.81-39.33,50.82a39.91,39.91,0,0,1-10.89-1.19v-8.47A34.72,34.72,0,0,0,1806,1216q14.21,0,21.47-8.8t7.9-27h-.71a21,21,0,0,1-8.65,7.49,27.75,27.75,0,0,1-12.14,2.57q-11.48,0-18.24-6.86t-6.75-19.19q0-13.52,7.55-21.32t19.87-7.82a26.61,26.61,0,0,1,15.43,4.53,28.62,28.62,0,0,1,10.15,13.21A53.73,53.73,0,0,1,1845.47,1173.34Zm-29.14-29.79q-8.46,0-13.08,5.45t-4.63,15.16c0,5.68,1.42,10.16,4.27,13.41s7.16,4.89,13,4.89a22.5,22.5,0,0,0,9.92-2.19,17.83,17.83,0,0,0,7.13-6,13.76,13.76,0,0,0,2.61-7.93,27.08,27.08,0,0,0-2.43-11.49,20.05,20.05,0,0,0-6.78-8.29A17,17,0,0,0,1816.33,1143.55Z"/><path class="cls-3" d="M1911.56,1156.76q0,8.28-4.65,13.56t-13.17,7v.48q10.41,1.31,15.46,6.63t5,14q0,12.38-8.58,19t-24.4,6.67a71,71,0,0,1-12.6-1,43.39,43.39,0,0,1-11.1-3.65v-9.35a56.74,56.74,0,0,0,24,5.68q22.44,0,22.44-17.59,0-15.75-24.75-15.75h-8.53V1174h8.65q10.13,0,16-4.47a14.68,14.68,0,0,0,5.92-12.41,12.27,12.27,0,0,0-4.35-9.95q-4.37-3.62-11.82-3.61a36.32,36.32,0,0,0-10.72,1.54,48.07,48.07,0,0,0-11.49,5.68l-5-6.63a41.52,41.52,0,0,1,12.29-6.6,44.56,44.56,0,0,1,14.65-2.4q12.62,0,19.6,5.77T1911.56,1156.76Z"/><path class="cls-3" d="M1962.79,1162.2q0,13.52-4.53,20.4t-13.29,6.91a14.52,14.52,0,0,1-12.88-7q-4.59-7.05-4.6-20.26,0-13.44,4.42-20.25t13.06-6.81a14.85,14.85,0,0,1,13.2,7Q1962.79,1149.23,1962.79,1162.2Zm-27.12,0q0,10.07,2.19,15.1t7.11,5q9.72,0,9.71-20.14t-9.71-20q-4.92,0-7.11,5T1935.67,1162.2Zm64-25.82-48,86.59H1943l48-86.59Zm15.28,60.53q0,13.44-4.53,20.34t-13.3,6.91a14.51,14.51,0,0,1-12.94-7.06q-4.53-7-4.53-20.19,0-13.44,4.42-20.26t13.05-6.81a15,15,0,0,1,13.12,7Q2015,1183.76,2015,1196.91Zm-27.19,0q0,10.13,2.2,15.13t7.16,5q5,0,7.35-4.94t2.37-15.19q0-10.12-2.37-15t-7.35-4.89q-5,0-7.16,4.89T1987.78,1196.91Z"/><path class="cls-3" d="M893,749.86H883.2V657.71H893Z"/><path class="cls-3" d="M969.9,717.35q0,15.87-8,24.78T939.81,751A29.2,29.2,0,0,1,924.35,747a27,27,0,0,1-10.42-11.72,40.87,40.87,0,0,1-3.67-17.88q0-15.89,7.94-24.73t22-8.86q13.62,0,21.64,9.06T969.9,717.35Zm-49.46,0q0,12.42,5,18.95t14.63,6.51q9.66,0,14.66-6.49t5-19q0-12.39-5-18.81t-14.78-6.43q-9.64,0-14.57,6.34T920.44,717.35Z"/><path class="cls-3" d="M1013.08,751q-14.1,0-21.83-8.68t-7.73-24.55q0-16.27,7.85-25.16t22.36-8.89a44.45,44.45,0,0,1,9.35,1,30.53,30.53,0,0,1,7.34,2.37l-3,8.35a45.87,45.87,0,0,0-7.1-2.16,32,32,0,0,0-6.81-.86q-19.79,0-19.78,25.23,0,12,4.82,18.36t14.31,6.39a43.72,43.72,0,0,0,16.64-3.49v8.7Q1023,751.05,1013.08,751Z"/><path class="cls-3" d="M1084.79,749.86l-2-9.24h-.48c-3.24,4.06-6.46,6.82-9.69,8.26a29.47,29.47,0,0,1-12,2.16q-9.66,0-15.14-5T1040,731.91q0-19.67,31.46-20.6l11-.36v-4q0-7.65-3.29-11.28T1068.68,692q-8.12,0-18.36,5l-3-7.52a46.23,46.23,0,0,1,10.51-4.09,45.39,45.39,0,0,1,11.46-1.48q11.61,0,17.21,5.16t5.59,16.52v44.3Zm-22.21-6.93q9.18,0,14.42-5t5.24-14.09v-5.86l-9.83.41q-11.73.42-16.91,3.64t-5.18,10c0,3.55,1.08,6.26,3.23,8.11S1058.71,742.93,1062.58,742.93Z"/><path class="cls-3" d="M1122.16,749.86h-9.83V657.71h9.83Z"/><g class="cls-5"><path class="cls-3" d="M998,967.29c-214.75,0-389.46-174.71-389.46-389.46S783.29,188.36,998,188.36s389.47,174.71,389.47,389.47S1212.8,967.29,998,967.29Zm0-709.43c-176.42,0-320,143.54-320,320s143.54,320,320,320,320-143.53,320-320S1174.47,257.86,998,257.86Z"/></g><rect class="cls-6" x="25.89" y="1139.53" width="1554.63" height="83.67" rx="3.6" ry="3.6"/><rect class="cls-3" x="1534.98" y="1139.53" width="169.42" height="83.62" rx="3.6" ry="3.6"/><rect class="cls-7" x="25.89" y="1414.06" width="1389.25" height="83.67" rx="3.6" ry="3.6"/><rect class="cls-3" x="1360.39" y="1414.06" width="344.02" height="83.62" rx="3.6" ry="3.6"/><path class="cls-3" d="M1784.93,1443.11q0-25.53,9.92-38.17t29.35-12.64a39.15,39.15,0,0,1,10.54,1.12v8.47a33.65,33.65,0,0,0-10.42-1.48q-13.92,0-21.26,8.67t-8.06,27.28h.71q6.52-10.2,20.62-10.19,11.65,0,18.38,7t6.72,19.13q0,13.5-7.37,21.23t-19.93,7.73q-13.44,0-21.32-10.1T1784.93,1443.11ZM1814,1473q8.41,0,13.06-5.31t4.65-15.3q0-8.6-4.32-13.51t-12.91-4.91a21.86,21.86,0,0,0-9.78,2.19,18.07,18.07,0,0,0-7.07,6,14,14,0,0,0-2.64,8,27.44,27.44,0,0,0,2.37,11.37,20,20,0,0,0,6.72,8.34A16.71,16.71,0,0,0,1814,1473Z"/><path class="cls-3" d="M1881.94,1392.3q11.85,0,18.78,5.5t6.93,15.22a19,19,0,0,1-4,11.67q-4,5.28-12.67,9.59,10.53,5,15,10.58a19.84,19.84,0,0,1,4.45,12.82q0,10.78-7.52,17.2t-20.61,6.43q-13.86,0-21.32-6.07t-7.47-17.21q0-14.87,18.13-23.15-8.17-4.62-11.73-10a21.21,21.21,0,0,1-3.55-12,18.26,18.26,0,0,1,7-15Q1870.28,1392.3,1881.94,1392.3Zm-18.71,66q0,7.11,4.94,11.07t13.89,4c5.88,0,10.47-1.39,13.74-4.15s4.92-6.56,4.92-11.38a13.84,13.84,0,0,0-4.62-10.21q-4.62-4.47-16.11-8.68-8.82,3.8-12.79,8.39A16.19,16.19,0,0,0,1863.23,1458.27Zm18.59-58q-7.39,0-11.6,3.55a11.77,11.77,0,0,0-4.21,9.48,13.62,13.62,0,0,0,3.49,9.36q3.51,3.9,12.92,7.81,8.46-3.54,12-7.64a14.14,14.14,0,0,0,3.53-9.53,11.67,11.67,0,0,0-4.3-9.51C1890.77,1401.47,1886.84,1400.29,1881.82,1400.29Z"/><path class="cls-3" d="M1958.17,1419.36q0,13.5-4.54,20.4t-13.29,6.9a14.53,14.53,0,0,1-12.88-7q-4.59-7.06-4.6-20.26,0-13.44,4.42-20.26t13.06-6.8a14.84,14.84,0,0,1,13.2,7Q1958.16,1406.39,1958.17,1419.36Zm-27.13,0q0,10.07,2.19,15.1t7.11,5q9.72,0,9.71-20.13t-9.71-20q-4.92,0-7.11,5T1931,1419.36Zm64-25.82-48,86.58h-8.7l48-86.58Zm15.28,60.53q0,13.44-4.53,20.34t-13.29,6.9a14.51,14.51,0,0,1-13-7q-4.53-7-4.53-20.19,0-13.46,4.42-20.26t13.06-6.81a15,15,0,0,1,13.12,7Q2010.34,1440.92,2010.34,1454.07Zm-27.18,0q0,10.11,2.19,15.13t7.17,5q5,0,7.34-4.94t2.37-15.19q0-10.14-2.37-15t-7.34-4.88q-5,0-7.17,4.88T1983.16,1454.07Z"/><path class="cls-3" d="M1796,1801l35.89-77.52h-47.21v-9.07h57.63v7.88L1806.93,1801Z"/><path class="cls-3" d="M1855.44,1764q0-25.52,9.92-38.16t29.34-12.65a39,39,0,0,1,10.54,1.13v8.46a33.89,33.89,0,0,0-10.41-1.48q-13.93,0-21.27,8.68t-8,27.28h.71q6.51-10.2,20.61-10.19,11.65,0,18.39,7t6.72,19.14q0,13.5-7.37,21.23t-19.93,7.73q-13.46,0-21.33-10.1T1855.44,1764Zm29.08,29.85q8.4,0,13.06-5.3t4.64-15.3c0-5.73-1.43-10.23-4.32-13.51s-7.19-4.91-12.91-4.91a21.79,21.79,0,0,0-9.77,2.19,18,18,0,0,0-7.07,6,13.92,13.92,0,0,0-2.64,8,27.53,27.53,0,0,0,2.36,11.37,20.09,20.09,0,0,0,6.73,8.35A16.68,16.68,0,0,0,1884.52,1793.82Z"/><path class="cls-3" d="M1959.32,1740.22q0,13.52-4.53,20.41t-13.29,6.9a14.54,14.54,0,0,1-12.89-7q-4.59-7.05-4.59-20.26,0-13.44,4.42-20.25t13.06-6.81a14.86,14.86,0,0,1,13.2,7Q1959.32,1727.25,1959.32,1740.22Zm-27.12,0q0,10.08,2.18,15.11t7.12,5q9.7,0,9.71-20.14t-9.71-20q-4.92,0-7.12,5T1932.2,1740.22Zm64-25.82-48,86.59h-8.71l48-86.59Zm15.28,60.53q0,13.44-4.52,20.34t-13.3,6.91a14.51,14.51,0,0,1-12.94-7q-4.53-7.05-4.53-20.2,0-13.44,4.41-20.26t13.06-6.8a15,15,0,0,1,13.12,7Q2011.49,1761.8,2011.49,1774.93Zm-27.18,0q0,10.13,2.19,15.13t7.17,5q5,0,7.34-4.94t2.37-15.19q0-10.12-2.37-15t-7.34-4.89q-5,0-7.17,4.89T1984.31,1774.93Z"/><rect class="cls-8" x="22.42" y="1703.65" width="1473.77" height="85.07" rx="3.6" ry="3.6"/><rect class="cls-3" x="1416.67" y="1703.65" width="287.21" height="85.07" rx="3.6" ry="3.6"/><path class="cls-3" d="M1843.83,2035q0,50.82-39.33,50.82a39.91,39.91,0,0,1-10.89-1.19v-8.47a34.63,34.63,0,0,0,10.78,1.54q14.2,0,21.46-8.79t7.91-27h-.71a21.11,21.11,0,0,1-8.65,7.5,27.9,27.9,0,0,1-12.14,2.57q-11.49,0-18.24-6.87t-6.75-19.19q0-13.5,7.55-21.32t19.87-7.81a26.63,26.63,0,0,1,15.43,4.52,28.67,28.67,0,0,1,10.15,13.21A53.73,53.73,0,0,1,1843.83,2035Zm-29.14-29.79q-8.48,0-13.09,5.45t-4.62,15.16q0,8.54,4.26,13.42t13,4.89a22.55,22.55,0,0,0,9.93-2.2,17.87,17.87,0,0,0,7.13-6,13.79,13.79,0,0,0,2.61-7.94,27.15,27.15,0,0,0-2.43-11.49,20.05,20.05,0,0,0-6.78-8.29A17.1,17.1,0,0,0,1814.69,2005.22Z"/><path class="cls-3" d="M1883.33,2031.76q13.68,0,21.53,6.78t7.84,18.57q0,13.44-8.55,21.08t-23.6,7.64q-14.64,0-22.33-4.68v-9.48a34,34,0,0,0,10.31,4.18,50.63,50.63,0,0,0,12.14,1.51q10.41,0,16.19-4.92t5.78-14.21q0-18.13-22.21-18.13a89.09,89.09,0,0,0-15,1.72l-5.09-3.26,3.26-40.5h43v9.06H1872l-2.19,26A68.84,68.84,0,0,1,1883.33,2031.76Z"/><path class="cls-3" d="M1961.15,2023.88q0,13.5-4.53,20.4t-13.29,6.9a14.53,14.53,0,0,1-12.88-7q-4.6-7.07-4.6-20.26,0-13.44,4.42-20.26t13.06-6.8a14.85,14.85,0,0,1,13.2,7Q1961.15,2010.91,1961.15,2023.88Zm-27.12,0q0,10.06,2.19,15.1t7.11,5q9.7,0,9.71-20.13t-9.71-20q-4.92,0-7.11,5T1934,2023.88Zm64-25.82-48,86.58h-8.71l48-86.58Zm15.27,60.53q0,13.42-4.52,20.34t-13.3,6.9a14.53,14.53,0,0,1-12.94-7q-4.53-7.05-4.53-20.19,0-13.46,4.41-20.26t13.06-6.81a15,15,0,0,1,13.12,7Q2013.33,2045.44,2013.32,2058.59Zm-27.18,0c0,6.74.74,11.79,2.19,15.12s3.85,5,7.17,5,5.76-1.65,7.35-4.94,2.36-8.37,2.36-15.19-.78-11.76-2.36-15-4-4.88-7.35-4.88-5.71,1.62-7.17,4.88S1986.14,2051.83,1986.14,2058.59Z"/><rect class="cls-9" x="24.25" y="1997.73" width="1647.82" height="85.07" rx="3.6" ry="3.6"/><rect class="cls-3" x="1626.46" y="1997.73" width="75.7" height="85.07" rx="3.6" ry="3.6"/><path class="cls-3" d="M1810.5,2313.24q13.68,0,21.53,6.78t7.85,18.57q0,13.44-8.56,21.08t-23.6,7.64q-14.62,0-22.32-4.68v-9.48a33.82,33.82,0,0,0,10.3,4.18,50.69,50.69,0,0,0,12.14,1.51q10.41,0,16.2-4.92t5.77-14.21q0-18.12-22.21-18.13a88.89,88.89,0,0,0-15,1.72l-5.09-3.26,3.25-40.5h43.06v9.06h-34.65l-2.19,26A68.84,68.84,0,0,1,1810.5,2313.24Z"/><path class="cls-3" d="M1910.18,2322.71q0,22.45-7.08,33.52t-21.64,11.08q-14,0-21.27-11.34t-7.28-33.26q0-22.62,7-33.58t21.51-11q14.08,0,21.4,11.43T1910.18,2322.71Zm-47.32,0q0,18.9,4.44,27.51t14.16,8.62q9.82,0,14.24-8.74t4.41-27.39q0-18.64-4.41-27.33t-14.24-8.68q-9.72,0-14.16,8.56T1862.86,2322.71Z"/><path class="cls-3" d="M1957.68,2305.36q0,13.5-4.54,20.4t-13.29,6.9a14.54,14.54,0,0,1-12.88-7q-4.59-7.07-4.59-20.26,0-13.44,4.41-20.26t13.06-6.8a14.84,14.84,0,0,1,13.2,7Q1957.69,2292.39,1957.68,2305.36Zm-27.13,0q0,10.07,2.19,15.1c1.47,3.36,3.83,5,7.11,5q9.72,0,9.72-20.13t-9.72-20c-3.28,0-5.64,1.66-7.11,5S1930.55,2298.65,1930.55,2305.36Zm64-25.82-48,86.58h-8.71l48-86.58Zm15.28,60.53q0,13.44-4.53,20.34t-13.29,6.9a14.51,14.51,0,0,1-13-7q-4.53-7.05-4.52-20.19,0-13.46,4.41-20.26T1992,2313a15,15,0,0,1,13.12,7Q2009.84,2326.92,2009.85,2340.07Zm-27.18,0c0,6.74.73,11.79,2.19,15.12s3.85,5,7.17,5,5.76-1.65,7.34-4.94,2.37-8.37,2.37-15.19-.79-11.76-2.37-15-4-4.88-7.34-4.88-5.71,1.62-7.17,4.88S1982.67,2333.31,1982.67,2340.07Z"/><rect class="cls-10" x="27.73" y="2289.63" width="1036.77" height="85.07" rx="3.6" ry="3.6"/><rect class="cls-3" x="1002.97" y="2289.63" width="702.23" height="85.96" rx="3.6" ry="3.6"/></svg>